<svg xmlns="http://www.w3.org/2000/svg" viewBox="0 0 132.87 185.15"><defs><style>.cls-1{fill:#395398;}.cls-1,.cls-2,.cls-3,.cls-4,.cls-5{fill-rule:evenodd;}.cls-2{fill:#415fa3;}.cls-3{fill:#6994d1;}.cls-4{fill:#5479ba;}.cls-5{fill:#36568e;}.cls-6{fill:#fff;}</style></defs><g id="Layer_2" data-name="Layer 2"><g id="OBJECTS"><path class="cls-1" d="M112,63.85c17.8,28.47,15.85,38.26-13.91,70.09-9.49.67-18,10.43-28.34,3.24C67,120.93,78.26,110.41,87.21,96.05c-21.46-4.86-42.88-7.17-57-25-8.2-6.72-12.88-13.84-8-25.61,3.72-8.94,5.18-19,7-28.68l-.06.11C42.63,4.57,56.56,1.74,71.61,14.24c4.15,3.45,9.28,4.78,14.67,5.54C113.46,23.59,117,29,111.57,57.32,111.11,59.66,110.83,61.74,112,63.85Z"/><path class="cls-2" d="M29.23,16.79c.18,10.64,2.54,21.75-3.55,31.39-7.34,11.59,7.26,12.92,8.45,20.37C41.89,81,50.58,92.31,63.47,100.05c8.37,5,13,12.88,8.91,23.53-7.59,6.34-15,2.3-20.17-2.6C38.36,107.79,21,100,6.61,87.67a61.51,61.51,0,0,1-4.16-5.2C5.53,58.08,19.65,38.41,29.23,16.79Z"/><path class="cls-2" d="M112,63.85c-5.21-3.38-2.11-7.58-1.72-12,1.39-15.61,1.09-30.27-21.53-25.6-5.57,1.15-12.64,2-16.87-3.51C59.32,6.28,44.87,7.56,29.17,16.9c8.67-9.39,55-20.67,64.32-15.67C115.13,12.78,120.54,31.07,112,63.85Z"/><path class="cls-3" d="M2.45,82.47c1.43,0,2.86,0,4.3.09,2.53,4.79,7,8.34,8.68,13.61,5.9,18.66,18.68,27.42,37.49,28.11,6.1.23,12.18,1.24,16.53,6.48.43,1,.85,2.08,1.27,3.13,9.11,8,18.24-3.85,27.35.05-11.68,8.32-23.59,13.58-37.34,4.34-4.34-2.91-8.85-2.41-11.53,2.76-9.87,19.11-21.49,8.21-28.34-.68C8.17,123.89-5.73,106.44,2.45,82.47Z"/><path class="cls-4" d="M48.21,172.25c.31-4.72,2.23-8,6.7-7.42,6.34.78,8.42,6.1,8,11.51-.29,4.11-1.78,10.3-7.63,8.48C50.08,183.2,49.08,177.06,48.21,172.25Z"/><path class="cls-4" d="M125.08,122.54c5.25,1.17,7.82,4.6,7.79,9.65-.05,5.8-3.89,7.72-8.91,7.35s-8.43-3.11-7.67-8.73C117,125.8,120.07,122.84,125.08,122.54Z"/><path class="cls-3" d="M5.36,150.24c-.53-3.69,1.42-4.77,3.6-4.23,1.75.44,4,1.9,4.55,3.45A2.84,2.84,0,0,1,10,153.25C8.18,152.82,6.65,151.12,5.36,150.24Z"/><path class="cls-5" d="M70.67,124.59c.87-9.48-2.3-18.41-10.91-21C42,98.17,38.4,83.44,34.13,68.55c13.53,12,28.46,20.18,47.2,18.81,6.15-.45,12.86.23,14.7,7.8,1.65,6.87-4.38,9.14-8.9,11.74-10.33,6-8.79,19.37-16.41,27l-.11.09C68.16,130.84,67.81,127.71,70.67,124.59Z"/><path class="cls-4" d="M70.67,124.59q0,4.71-.06,9.39c-4.25-1.53-8.39-3.9-12.75-4.46-40.32-5.18-40.33-5.09-51.11-47Z"/><path class="cls-6" d="M81.63,144V97.47H96.92l2.29-18.14H81.63V67.74c0-5.25,1.43-8.83,8.8-8.83h9.39V42.68A122.57,122.57,0,0,0,86.13,42C72.58,42,63.3,50.42,63.3,66V79.33H48V97.47H63.3V144Z"/></g></g></svg>