<svg xmlns="http://www.w3.org/2000/svg" viewBox="0 0 159.85 149.42"><defs><style>.cls-1{fill:#b02a9e;}.cls-1,.cls-2,.cls-3,.cls-4,.cls-5,.cls-6,.cls-7,.cls-8{fill-rule:evenodd;}.cls-2{fill:#972aab;}.cls-3{fill:#f04471;}.cls-4{fill:#cf2a8c;}.cls-5{fill:#9f2aa6;}.cls-6{fill:#b52a9b;}.cls-7{fill:#f38259;}.cls-8{fill:#f5ab4a;}.cls-9{fill:#fff;}</style></defs><g id="Layer_2" data-name="Layer 2"><g id="OBJECTS"><path class="cls-1" d="M13.42,38.13C4.88,21.73,7.17,13.5,26.72,5.53s105.4-6.76,99.09,0,1.3,4.69-1,6.61c-6.64,4.32-14.14,4-21.56,4.21-17.17.21-34.35,0-51.54.11-13,.1-23.31,4.49-29.26,17C20.18,36.47,17.5,38.77,13.42,38.13Z"/><path class="cls-2" d="M121.75,11.21q0-2.3,0-4.59h4.5c3.58,6.53,11,3.09,15.72,6.2,5.93,3.91,4.38,6.63-1.86,7.86-4.16,3.63-1.37,9.77-4.72,13.69l0,9C123.05,43.66,120.61,32.52,115,25,113.16,18.32,116.71,14.38,121.75,11.21Z"/><path class="cls-3" d="M13.42,38.13l4.75-5c18.67-21.62,45.21-17.46,65.51-11.6,20.06,5.8,39.55,19.49,58.78,30.7,10.56,10.68,11.86,23,6.19,36.54-.21,3.75-1.33,7-4.92,8.75-4.45,4.82-3.61,11.77-6.59,17.19-6.77,7.3-17.9,11-24.24,7.26-17.5-10.39-22.52-.27-27.44,13.18-34.23,18-32.11,15.13-59.72-14.41C.59,93.82-.55,68.48,13.42,38.13Z"/><path class="cls-4" d="M139.37,56.16c-5.56,1.1-5.08-21.39-16.14-3.55C119,59.5,114.39,48.71,110.5,45,86.11,21.93,44.79,16.59,18.16,33.11,21.38,16.29,31.8,9.56,48,10c18.4.51,36.8.37,55.21.53,5.91,4.59,9.11,13.08,18.12,13.21,9,3.16,11,13.45,18.06,18.54l4.69,4.4C146.88,52.13,142.51,53.82,139.37,56.16Z"/><path class="cls-4" d="M85.46,135.13c6.61-12.53-8.92-7.44-11.31-15.53,15.35.06,27.86-6.08,36.92-17.53,8.11,7.67-1,11.11.39,17.31,8.85,1.41,16.23-2.69,23.31-7.82,8.42-.58,7.28,3.87,4.59,9.12Z"/><path class="cls-5" d="M139.37,56.16c1.59-3.16,3.16-6.31,4.75-9.46,12.23,12.81,25.95,25.46,4.52,42.05C145.76,77.82,149.18,65,139.37,56.16Z"/><path class="cls-5" d="M139.36,120.68c-.28-3.69-.89-7.22-4.59-9.12,0-6.65,2.45-11.73,9-14.06C138.87,104.56,156,116,139.36,120.68Z"/><path class="cls-1" d="M135.38,35.47c-2.44-6-8.44-15.7,4-16.35,6.28-2.31,10.24,13.63,10.24,13.63S137.4,41.79,135.38,35.47Z"/><path class="cls-6" d="M121.37,23.76c-1.37,2.4-3.65,7-4,6.85-8.62-3.66-14.72-9.51-14.13-20.07q11.28-.19,22.56-.42Q123.59,16.95,121.37,23.76Z"/><path class="cls-7" d="M31.58,145.18l-4.29-1.35C9.39,139,3.93,121.93,1.28,108c-2.61-13.72-.54-29.43.2-44.26,3-9.48,9.66-13.91,19.09-14.52,2.21-1,4.39-1.26,6.47.36,4.07,1.24,7.8-1.32,11.79-1.13C45,50.38,50.44,55.94,50.16,60.85c-.78,13.55,6.5,13.56,15.65,12.53,20.44,15.16,18.16,14.74,9.42,40C67.26,136.4,53.08,144.58,31.58,145.18Z"/><path class="cls-8" d="M13.14,134.43c-2.66-.23-5.31-.49-8-.78.26-2.73.51-5.44.77-8.17,12-5.41,7.23-19.4,13.44-27.5,7.79-10.11,12.25-6.82,13.33,4.71,5.6,8.16,16.74,4.15,23,10.9l15.65,1.58C69.73,137.58,50,140.12,36,149,24,151.23,17.8,144.11,13.14,134.43Z"/><path class="cls-9" d="M92.36,117.79H54.59c-16.76,0-30.4-14-30.4-31.09v-34c0-17.14,13.64-31.08,30.4-31.08H92.36c16.76,0,30.4,13.94,30.4,31.08v34C122.76,103.84,109.12,117.79,92.36,117.79ZM54.59,28.49c-13,0-23.65,10.85-23.65,24.18v34c0,13.33,10.61,24.18,23.65,24.18H92.36c13,0,23.65-10.85,23.65-24.18v-34c0-13.33-10.61-24.18-23.65-24.18Z"/><path class="cls-9" d="M73.48,97.36c-14.93,0-27.07-12.42-27.07-27.67S58.55,42,73.48,42s27.06,12.41,27.06,27.67S88.4,97.36,73.48,97.36Zm0-48.44a20.77,20.77,0,1,0,20.3,20.77A20.57,20.57,0,0,0,73.48,48.92Z"/><path class="cls-9" d="M105.74,42.87a5.62,5.62,0,1,1-5.62-5.75A5.68,5.68,0,0,1,105.74,42.87Z"/></g></g></svg>